<svg width="85" height="34" viewBox="0 0 85 34" fill="none" xmlns="http://www.w3.org/2000/svg">
<path d="M70.2539 33.9998C69.6072 33.9998 69.0003 33.9482 68.4334 33.8448C67.8744 33.7494 67.4113 33.6261 67.044 33.4751L68.1938 29.6823C68.7927 29.8652 69.3317 29.9645 69.8108 29.9804C70.2979 29.9963 70.7171 29.885 71.0684 29.6465C71.4277 29.4079 71.7192 29.0024 71.9428 28.4299L72.2422 27.6547L65.6426 8.81006H71.0085L74.8174 22.2637H75.009L78.8538 8.81006H84.2557L77.1051 29.1098C76.7617 30.0957 76.2946 30.9545 75.7037 31.686C75.1208 32.4255 74.3822 32.994 73.4879 33.3916C72.5936 33.7971 71.5156 33.9998 70.2539 33.9998Z" fill="white"/>
<path d="M64.401 2.72998V27.0511H59.4375V3.97086L64.401 2.72998Z" fill="white"/>
<path d="M41.4453 27.0509V24.0345L50.4081 12.9784V12.8478H41.7552V8.81006H56.5223V12.0996L48.1078 22.8826V23.0132H56.8322V27.0509H41.4453Z" fill="white"/>
<path d="M27.0783 16.4995V27.0511H21.9639V8.79966H26.8382V12.0198H27.0543C27.4625 10.9583 28.1468 10.1186 29.1072 9.50072C30.0677 8.87492 31.2322 8.56201 32.6009 8.56201C33.8815 8.56201 34.998 8.83927 35.9504 9.39378C36.9029 9.94829 37.6432 10.7405 38.1715 11.7703C38.6997 12.7922 38.9639 14.0121 38.9639 15.4301V27.0511H33.8495V16.3331C33.8575 15.2162 33.5693 14.3448 32.9851 13.719C32.4008 13.0853 31.5964 12.7684 30.5719 12.7684C29.8836 12.7684 29.2753 12.9149 28.7471 13.208C28.2268 13.5011 27.8186 13.9289 27.5225 14.4913C27.2343 15.0459 27.0863 15.7152 27.0783 16.4995Z" fill="white"/>
<path d="M14.2695 27.0509V10.0509L19.233 8.81006V27.0509H14.2695Z" fill="white"/>
<path d="M11.292 8.82597V12.6229H0V8.82597H11.292ZM2.58476 27.0511V7.90335C2.58476 6.58234 2.84284 5.48677 3.359 4.61665C3.8831 3.74653 4.59778 3.09393 5.50305 2.65887C7.52781 1.68579 9.73056 1.87644 11.292 1.87644L11.2879 6.05304C9.63182 6.05304 7.64709 5.82389 7.64709 7.99827V27.0511H2.58476Z" fill="white"/>
<path d="M14.2695 4.03662C14.2695 2.90272 15.0381 1.91303 16.1366 1.63219L22.5214 0V0.802798C22.5214 1.93669 21.7528 2.92639 20.6543 3.20723L14.2695 4.83942V4.03662Z" fill="#5200FF"/>
<path d="M14.2695 7.52183C14.2695 6.38304 15.0446 5.39038 16.1494 5.11418L19.233 4.34326V5.1355C19.233 6.27429 18.458 7.26695 17.3532 7.54315L14.2695 8.31406V7.52183Z" fill="#5200FF"/>
<path d="M14.2695 5.95637V4.83958L15.9447 4.40527C14.7659 4.7109 14.2902 5.70819 14.2695 5.95637Z" fill="#5200FF"/>
</svg>
