<svg width="85" height="34" viewBox="0 0 85 34" fill="none" xmlns="http://www.w3.org/2000/svg">
<g id="Group 29">
<path id="Vector" d="M70.2539 34C69.6072 34 69.0003 33.9483 68.4334 33.845C67.8744 33.7496 67.4113 33.6263 67.044 33.4752L68.1938 29.6825C68.7927 29.8653 69.3317 29.9647 69.8108 29.9806C70.2979 29.9965 70.7171 29.8852 71.0684 29.6467C71.4277 29.4081 71.7192 29.0026 71.9428 28.4301L72.2422 27.6549L65.6426 8.81024H71.0085L74.8174 22.2639H75.009L78.8538 8.81024H84.2557L77.1051 29.11C76.7617 30.0959 76.2946 30.9547 75.7037 31.6862C75.1208 32.4257 74.3822 32.9942 73.4879 33.3917C72.5936 33.7973 71.5156 34 70.2539 34Z" fill="black"/>
<path id="Vector_2" d="M64.401 2.72998V27.0511H59.4375V3.97086L64.401 2.72998Z" fill="black"/>
<path id="Vector_3" d="M41.4453 27.0511V24.0347L50.4081 12.9786V12.8479H41.7552V8.81024H56.5223V12.0998L48.1078 22.8828V23.0134H56.8322V27.0511H41.4453Z" fill="black"/>
<path id="Vector_4" d="M27.0783 16.4995V27.0511H21.9639V8.79972H26.8382V12.0199H27.0543C27.4625 10.9584 28.1468 10.1187 29.1072 9.50078C30.0677 8.87498 31.2322 8.56207 32.6009 8.56207C33.8815 8.56207 34.998 8.83933 35.9504 9.39384C36.9029 9.94835 37.6432 10.7405 38.1715 11.7703C38.6997 12.7922 38.9639 14.0121 38.9639 15.4301V27.0511H33.8495V16.3332C33.8575 15.2162 33.5693 14.3449 32.9851 13.719C32.4008 13.0853 31.5964 12.7685 30.5719 12.7685C29.8836 12.7685 29.2753 12.915 28.7471 13.2081C28.2268 13.5012 27.8186 13.929 27.5225 14.4914C27.2343 15.0459 27.0863 15.7153 27.0783 16.4995Z" fill="black"/>
<path id="Vector_5" d="M14.2695 27.0511V10.0511L19.233 8.81024V27.0511H14.2695Z" fill="black"/>
<path id="Vector_6" d="M11.292 8.82597V12.6229H0V8.82597H11.292ZM2.58476 27.0511V7.90335C2.58476 6.58234 2.84284 5.48677 3.359 4.61665C3.8831 3.74653 4.59778 3.09393 5.50305 2.65887C7.52781 1.68579 9.73056 1.87644 11.292 1.87644L11.2879 6.05304C9.63182 6.05304 7.64709 5.82389 7.64709 7.99827V27.0511H2.58476Z" fill="black"/>
<g id="Group 27">
<path id="Rectangle 13" d="M14.2695 4.03662C14.2695 2.90272 15.0381 1.91303 16.1366 1.63219L22.5214 0V0.802798C22.5214 1.93669 21.7528 2.92639 20.6543 3.20723L14.2695 4.83942V4.03662Z" fill="#5200FF"/>
<path id="Rectangle 9" d="M14.2695 7.52165C14.2695 6.38285 15.0446 5.39019 16.1494 5.11399L19.233 4.34308V5.13531C19.233 6.27411 18.458 7.26677 17.3532 7.54297L14.2695 8.31388V7.52165Z" fill="#5200FF"/>
<path id="Vector 1" d="M14.2695 5.95625V4.83946L15.9447 4.40515C14.7659 4.71077 14.2902 5.70807 14.2695 5.95625Z" fill="#5200FF"/>
</g>
</g>
</svg>